<svg xmlns="http://www.w3.org/2000/svg" width="28.493" height="28.493" xmlns:v="https://vecta.io/nano"><path d="M14.247 0a14.247 14.247 0 1 0 14.246 14.247A14.248 14.248 0 0 0 14.247 0zm-4.14 21.537h-3.47V11.1h3.47zM8.372 9.673H8.35A1.808 1.808 0 1 1 8.4 6.066a1.809 1.809 0 1 1-.023 3.607zm14.246 11.864h-3.47v-5.585c0-1.4-.5-2.36-1.758-2.36a1.9 1.9 0 0 0-1.78 1.269 2.376 2.376 0 0 0-.114.847v5.83h-3.47v-10.44H15.5v1.478a3.445 3.445 0 0 1 3.127-1.723c2.283 0 3.994 1.492 3.994 4.7z" fill="#fff"/></svg>