<svg xmlns="http://www.w3.org/2000/svg" width="32" height="22" xmlns:v="https://vecta.io/nano"><path d="M.2 15.8c-.263-1.188-.225-2.418-.172-3.24.126-1.96.73-3.9 1.794-5.76a15.93 15.93 0 0 1 1.632-2.32C5.54 2.022 8.62.467 11.796.01l.068-.01.335.992-.078.026c-1.66.568-3.004 1.202-3.995 1.885s-1.867 1.595-2.6 2.714c-.608.903-1.098 1.8-1.46 2.704 1.098-.62 2.34-.946 3.6-.946 4.043 0 7.333 3.28 7.333 7.313S11.7 22 7.668 22c-.696 0-1.478-.118-2.2-.333-1.17-.35-2.32-1.08-3.24-2.06A8.22 8.22 0 0 1 .89 17.659C.576 17.04.34 16.4.2 15.8m17 0c-.263-1.188-.225-2.418-.172-3.24.125-1.96.73-3.9 1.794-5.76a15.93 15.93 0 0 1 1.632-2.32C22.54 2.022 25.62.467 28.796.01l.068-.01.335.992-.078.026c-1.66.568-3.004 1.202-3.995 1.885s-1.867 1.595-2.6 2.714c-.608.903-1.098 1.8-1.46 2.704 1.098-.62 2.34-.946 3.6-.946 4.043 0 7.333 3.28 7.333 7.313S28.7 22 24.668 22c-.696 0-1.478-.118-2.2-.333-1.17-.35-2.32-1.08-3.24-2.06a8.22 8.22 0 0 1-1.338-1.948 7.97 7.97 0 0 1-.68-1.849" fill="#fff" fill-rule="evenodd"/></svg>