<svg xmlns="http://www.w3.org/2000/svg" width="119" height="126" xmlns:v="https://vecta.io/nano"><path fill="#b4bcc1" fill-rule="evenodd" d="M118.7 101.748c-.492-8.854-10.042-14.635-15.607-17.266l-11.758-4.906c-3.56-1.393-8.203-3.404-8.203-3.404-3.095-3.87-7.12-6.035-7.12-6.035v-6.963c3.56-4.488 3.25-10.677 3.25-10.677l.775.3c2 2.165 2.476-.93 2.476-.93 1.702-3.094 2.167-6.963 2.167-6.963 0-1.238 1.703-6.035 1.703-6.035.62-3.405-3.096-2.785-3.096-2.785 4.798-7.12 0-19.343 0-19.343C80.027 9.014 74.3 5.92 74.3 5.92 65.167.35 53.093 2.05 53.093 2.05l.62-.774C54.02.35 60.676.04 60.676.04 49.223-.425 46.902 3.366 46.902 3.366 46.437 2.67 49.068.04 49.068.04c-7.12 4.024-6.2 6.654-6.2 6.654-3.716-.734-7.314 3.288-7.314 3.288l2.438-.812c-4.18 1.857-3.947 6.847-3.947 6.847l1.702-1.433c-.4.52-.725 1.07-1 1.65-4.137 8.37 2.093 22.182 2.093 22.182-4.5-6.035-3.87 3.405-3.87 3.405.62.618 1.858 4.487 1.858 4.487.774 2.012 2.012 4.952 2.012 4.952 1.703 4.642 2.94 1.702 2.94 1.702.3 6.964 3.406 10.04 3.406 10.04l-.155 8.84c-2.942.154-7.585 5.724-7.585 5.724-.495-.082-3.718 1.2-6.62 2.413-1.7.665-3.606 1.456-5.62 2.352-4.076 1.503-9.122 4.366-9.122 4.366-3.306 1.46-5.644 3.287-7.3 5.168a28.86 28.86 0 0 0-1.586 1.425s-5.2 4.547-5.2 9.5V126h118.7s.697-11.718 0-24.252"/></svg>