<svg xmlns="http://www.w3.org/2000/svg" width="104" height="127" xmlns:v="https://vecta.io/nano"><path fill="#b4bcc1" fill-rule="evenodd" d="M103.73 104.4c-.43-8.254-8.778-13.643-13.642-16.095L79.814 83.72c-3.1-1.3-7.17-3.173-7.17-3.173-2.293-3.06-5.173-4.976-5.993-5.487l-.025-1.6h.27c18.194-.933 23.995-3.996 25.73-5.406l-2.8-2.35a20.522 20.522 0 0 1-4.474-3.773l4.475 3.772c1.343.84 2.552 1.38 3.425 1.7a.633.633 0 0 0 .052-.082c-3.774-2.627-6.47-12.957-6.47-12.957-2.156-5.078-3.774-23.462-3.774-23.462 0-5.253-2.156-10.68-2.156-10.68-3.954-11.03-12.76-16.1-12.76-16.1a27.338 27.338 0 0 0-2.189-1.126C65.23 2.68 60.67.83 55.068.165 51.64-.155 49.283.1 49.283.1a28.96 28.96 0 0 0-5.293.905c-2.518.825-4.903 2.193-6.928 4.33 0 0-.013-.037-.124-.045C29.64 2.588 24.335 16.9 24.323 16.92c-1.563 3.46-2.986 9.3-2.986 9.3L20.26 37.908c-.8 9.98-4.988 22.455-4.988 22.455-1.617 4.597-4.718 6.83-4.718 6.83.713.665 1.585 1.26 2.572 1.8a25.3 25.3 0 0 0 3.206-1.8l2.714-2.886c-.357 1.042-1.504 2.057-2.714 2.885L14.15 69.5c4.84 2.228 11.8 3.175 16.838 3.577.518-3.088 1.387-9.367.974-14.8a213.837 213.837 0 0 0-.246-2.182c.1.706.2 1.437.246 2.182.402 3.7 1.142 11.168 1.02 14.95a81.59 81.59 0 0 0 4.396.158l-.048 3.18c-2.574.47-6.35 5.3-6.35 5.3-.433-.076-3.25 1.118-5.785 2.25a119.72 119.72 0 0 0-4.912 2.192c-3.562 1.402-7.972 4.07-7.972 4.07-2.9 1.36-4.933 3.065-6.38 4.818a22.07 22.07 0 0 0-1.387 1.33s-4.543 4.24-4.543 8.856V127h103.73s.6-10.925 0-22.6"/></svg>