<svg xmlns="http://www.w3.org/2000/svg" width="39.516" height="30.947" viewBox="0 0 39.516 30.947">
    <path id="prefix__Path_1253" d="M31.445 129.788a1.831 1.831 0 0 1 2.558.381 1.575 1.575 0 0 1-.054 2.449q-5.334 5.225-6.1 9.58-.327 1.851 1.089 1.851a5.512 5.512 0 0 1 4.409 2.177 8.435 8.435 0 0 1 1.8 5.552 8.738 8.738 0 0 1-2.232 6.2 7.592 7.592 0 0 1-5.824 2.395 7.879 7.879 0 0 1-6.042-2.667 10.13 10.13 0 0 1-2.449-7.13q0-12.297 12.845-20.788zm22.969 0a1.831 1.831 0 0 1 2.558.381 1.575 1.575 0 0 1-.054 2.449q-5.334 5.225-6.1 9.58-.327 1.851 1.089 1.851a5.512 5.512 0 0 1 4.409 2.177 8.435 8.435 0 0 1 1.8 5.552 8.738 8.738 0 0 1-2.232 6.2 7.592 7.592 0 0 1-5.824 2.395 7.878 7.878 0 0 1-6.042-2.667 10.13 10.13 0 0 1-2.449-7.13q0-12.297 12.845-20.788z" data-name="Path 1253" transform="translate(-18.6 -129.431)" style="fill:#99e5dc"/>
</svg>
